<?xml version="1.0" encoding="UTF-8" standalone="no"?>
<!-- Created with Inkscape (http://www.inkscape.org/) -->

<svg
   width="210mm"
   height="297mm"
   viewBox="0 0 210 297"
   version="1.1"
   id="svg1"
   inkscape:version="1.3.2 (091e20e, 2023-11-25, custom)"
   sodipodi:docname="logo only.svg"
   xmlns:inkscape="http://www.inkscape.org/namespaces/inkscape"
   xmlns:sodipodi="http://sodipodi.sourceforge.net/DTD/sodipodi-0.dtd"
   xmlns="http://www.w3.org/2000/svg"
   xmlns:svg="http://www.w3.org/2000/svg">
  <sodipodi:namedview
     id="namedview1"
     pagecolor="#ffffff"
     bordercolor="#000000"
     borderopacity="0.25"
     inkscape:showpageshadow="2"
     inkscape:pageopacity="0.0"
     inkscape:pagecheckerboard="0"
     inkscape:deskcolor="#d1d1d1"
     inkscape:document-units="mm"
     inkscape:zoom="1.4450552"
     inkscape:cx="282.68815"
     inkscape:cy="251.54748"
     inkscape:window-width="2560"
     inkscape:window-height="1361"
     inkscape:window-x="-9"
     inkscape:window-y="-9"
     inkscape:window-maximized="1"
     inkscape:current-layer="layer1" />
  <defs
     id="defs1" />
  <g
     inkscape:label="Warstwa 1"
     inkscape:groupmode="layer"
     id="layer1">
    <g
       fill="#000000"
       data-fill-palette-color="quaternary"
       id="g9"
       transform="matrix(0.60200572,0,0,0.60200572,40.693122,25.971702)">
      <path
         fill="#000000"
         d="m 37.545,50.915 c 0,0 2.743,1.022 4.211,0.469 C 40.154,43.609 39.15,33.905 39.15,33.905 l -1.021,-0.372 c 0,0 -11.524,5.358 -13.314,14.333 1.641,0.938 4.309,1.166 4.309,1.166 0.469,12.431 4.134,26.274 28.524,22.991 0.938,0 0,-1.407 0,-1.407 C 41.39,71.057 37.131,55.857 37.545,50.915"
         data-fill-palette-color="quaternary"
         id="path7" />
      <path
         fill="#000000"
         d="m 41.856,28.066 c -0.938,0 0,1.408 0,1.408 16.257,-0.441 20.518,14.757 20.102,19.7 0,0 -2.741,-1.022 -4.21,-0.469 1.604,7.775 2.607,17.479 2.607,17.479 l 1.02,0.373 c 0,0 11.525,-5.358 13.314,-14.334 -1.642,-0.938 -4.31,-1.164 -4.31,-1.164 C 69.912,38.628 66.248,24.783 41.856,28.066"
         data-fill-palette-color="quaternary"
         id="path8" />
      <path
         fill="#000000"
         d="M 95,48.045 H 89.51 C 88.497,27.683 72.113,11.3 51.752,10.287 v -5.49 a 2,2 0 0 0 -4,0 v 5.49 C 27.39,11.3 11.007,27.683 9.994,48.045 h -5.49 a 2,2 0 0 0 0,4 h 5.49 C 11.007,72.407 27.39,88.79 47.752,89.803 v 5.49 a 2,2 0 0 0 4,0 v -5.49 C 72.113,88.79 88.497,72.407 89.51,52.045 H 95 a 2,2 0 0 0 0,-4 m -43.248,37.75 v -1.766 a 2,2 0 0 0 -4,0 v 1.766 C 29.596,84.79 15.007,70.2 14.002,52.045 h 1.765 a 2,2 0 0 0 0,-4 H 14.002 C 15.006,29.889 29.596,15.3 47.752,14.295 v 1.765 a 2,2 0 0 0 4,0 v -1.765 c 18.155,1.004 32.745,15.594 33.75,33.75 h -1.766 a 2,2 0 0 0 0,4 h 1.766 C 84.497,70.2 69.907,84.79 51.752,85.795"
         data-fill-palette-color="quaternary"
         id="path9"
         inkscape:label="path9" />
    </g>
  </g>
</svg>
